<?xml version="1.0" encoding="UTF-8"?>
<svg width="857px" height="215px" viewBox="0 0 857 215" version="1.1" xmlns="http://www.w3.org/2000/svg" xmlns:xlink="http://www.w3.org/1999/xlink">
    <!-- Generator: Sketch 48.2 (47327) - http://www.bohemiancoding.com/sketch -->
    <title>white</title>
    <desc>Created with Sketch.</desc>
    <defs></defs>
    <g id="Page-1" stroke="none" stroke-width="1" fill="none" fill-rule="evenodd">
        <g id="white" transform="translate(0.000000, -1.000000)" fill="#FFFFFF">
            <path d="M848.8532,60.7505629 L848.8532,151.997518 L777.5504,60.7505629 L771.1088,60.7505629 L771.1088,165.804125 L778.748,165.804125 L778.748,74.5571697 L850.202,165.804125 L856.4924,165.804125 L856.4924,60.7505629 L848.8532,60.7505629 Z M709.6028,136.915327 C705.5072,143.968911 699.9152,149.496844 692.8256,153.499125 C685.7324,157.501406 677.7944,159.501945 669.008,159.501945 C660.2192,159.501945 652.2536,157.501406 645.1148,153.499125 C637.9748,149.496844 632.3564,143.968911 628.2632,136.915327 C624.1676,129.86054 622.1216,121.982215 622.1216,113.276743 C622.1216,104.572473 624.1676,96.6929449 628.2632,89.6405629 C632.3564,82.5869787 637.9748,77.0590461 645.1148,73.0567652 C652.2536,69.0556865 660.2192,67.0539449 669.008,67.0539449 C677.7944,67.0539449 685.7324,69.0556865 692.8256,73.0567652 C699.9152,77.0590461 705.5072,82.5869787 709.6028,89.6405629 C713.696,96.6929449 715.7444,104.572473 715.7444,113.276743 C715.7444,121.982215 713.696,129.86054 709.6028,136.915327 Z M696.8708,66.903664 C688.5788,62.302664 679.292,60.0003607 669.008,60.0003607 C658.7216,60.0003607 649.4336,62.326709 641.1452,66.9782034 C632.8556,71.6309 626.3384,78.0088213 621.5972,86.1131697 C616.8524,94.217518 614.4812,103.274046 614.4812,113.276743 C614.4812,123.284248 616.8524,132.33717 621.5972,140.441518 C626.3384,148.545866 632.8556,154.923788 641.1452,159.576484 C649.4336,164.227979 658.7216,166.555529 669.008,166.555529 C679.292,166.555529 688.5788,164.254428 696.8708,159.651024 C705.158,155.051226 711.674,148.694945 716.4188,140.591799 C721.1612,132.487451 723.5336,123.384035 723.5336,113.276743 C723.5336,103.173057 721.1612,94.0672371 716.4188,85.964091 C711.674,77.8585404 705.158,71.5070685 696.8708,66.903664 Z M532.5296,124.683664 L502.5716,124.683664 L502.5716,67.6538663 L532.5296,67.6538663 C543.7136,67.6538663 552.2516,70.1304955 558.1448,75.0825517 C564.0356,80.0358101 566.9828,87.0653494 566.9828,96.1687652 C566.9828,105.274585 564.0356,112.30172 558.1448,117.254979 C552.2516,122.207035 543.7136,124.683664 532.5296,124.683664 Z M568.406,117.104698 C572.6492,111.452934 574.7732,104.473889 574.7732,96.1687652 C574.7732,85.0636079 571.028,76.3845854 563.5376,70.1304955 C556.0484,63.8788101 545.7128,60.7505629 532.5296,60.7505629 L494.93,60.7505629 L494.93,165.804125 L502.5716,165.804125 L502.5716,131.436687 L532.5296,131.436687 C535.6244,131.436687 539.0204,131.189024 542.7164,130.686484 L567.7316,165.804125 L576.4208,165.804125 L550.2056,129.035799 C558.0932,126.7359 564.1604,122.757664 568.406,117.104698 Z M431.5064,165.804125 L439.1456,165.804125 L439.1456,60.7505629 L431.5064,60.7505629 L431.5064,165.804125 Z M339.3092,146.711237 L300.164,155.961327 L338.9792,69.1542708 L378.4412,155.919248 L339.3092,146.711237 Z M335.2352,60.7505629 L287,165.804125 L339.3776,153.847776 L391.1084,165.804125 L342.8744,60.7505629 L335.2352,60.7505629 Z" id="Fill-1"></path>
            <g id="Page-1">
                <polygon id="Fill-1" points="99.5004 1 0.0004 215.947 59.7764 155.723"></polygon>
                <polygon id="Fill-2" points="99.5004 1 139.2234 155.723 198.9994 215.947"></polygon>
                <polygon id="Fill-3" opacity="0.25" points="99.5 190.447 59.776 155.723 99.5 1 139.224 155.723"></polygon>
                <polygon id="Fill-5" opacity="0.149999991" points="99.5 190.447 59.776 155.723 0 215.947"></polygon>
                <polygon id="Fill-7" opacity="0.149999991" points="99.5 190.447 139.224 155.723 199 215.947"></polygon>
            </g>
        </g>
    </g>
</svg>