<svg xmlns="http://www.w3.org/2000/svg" viewBox="662.14 739.4 69.64 14.8">
  <defs>
    <style>
      .cls-1 {
      fill: #fff;
      }
    </style>
  </defs>
  <path id="Airon.io" class="cls-1" d="M5.78-14.2H7.74L13.34,0H10.98L9.48-3.86H4L2.52,0H.14ZM9.04-5.52l-2.28-6.1L4.4-5.52ZM14.82,0V-10.46h2.2V0Zm0-12.18V-14.6h2.2v2.42ZM25.54-8.56a4.921,4.921,0,0,0-2.27.59A3.109,3.109,0,0,0,21.86-6.4V0h-2.2V-10.46H21.7v2.34a4.784,4.784,0,0,1,1.41-1.73,3.42,3.42,0,0,1,1.87-.71h.33a1.182,1.182,0,0,1,.23.02ZM31.32.2a5.434,5.434,0,0,1-2.23-.44A5.206,5.206,0,0,1,27.4-1.42a5.2,5.2,0,0,1-1.08-1.73,5.727,5.727,0,0,1-.38-2.07,5.727,5.727,0,0,1,.38-2.07,5.119,5.119,0,0,1,1.09-1.73,5.322,5.322,0,0,1,1.7-1.18,5.383,5.383,0,0,1,2.21-.44,5.383,5.383,0,0,1,2.21.44,5.322,5.322,0,0,1,1.7,1.18,5.119,5.119,0,0,1,1.09,1.73,5.727,5.727,0,0,1,.38,2.07,5.727,5.727,0,0,1-.38,2.07,5.119,5.119,0,0,1-1.09,1.73,5.322,5.322,0,0,1-1.7,1.18A5.383,5.383,0,0,1,31.32.2ZM28.2-5.2a3.957,3.957,0,0,0,.24,1.4,3.48,3.48,0,0,0,.66,1.11,3.087,3.087,0,0,0,.99.74,2.837,2.837,0,0,0,1.23.27,2.837,2.837,0,0,0,1.23-.27,3.022,3.022,0,0,0,.99-.75,3.6,3.6,0,0,0,.66-1.12,3.957,3.957,0,0,0,.24-1.4,3.981,3.981,0,0,0-.24-1.39,3.579,3.579,0,0,0-.66-1.13,3.022,3.022,0,0,0-.99-.75,2.837,2.837,0,0,0-1.23-.27,2.709,2.709,0,0,0-1.21.28,3.147,3.147,0,0,0-.99.76,3.732,3.732,0,0,0-.67,1.13A3.839,3.839,0,0,0,28.2-5.2ZM48.04,0h-2.2V-5.86a3.819,3.819,0,0,0-.47-2.15,1.588,1.588,0,0,0-1.39-.67,2.718,2.718,0,0,0-.96.18,3.362,3.362,0,0,0-.9.51,3.973,3.973,0,0,0-.75.78,3.574,3.574,0,0,0-.51.99V0h-2.2V-10.46h2v2.1a4.249,4.249,0,0,1,1.74-1.67,5.256,5.256,0,0,1,2.52-.61,3.1,3.1,0,0,1,1.54.34,2.544,2.544,0,0,1,.95.93,4.068,4.068,0,0,1,.49,1.36,9.105,9.105,0,0,1,.14,1.63ZM50.5,0V-2.56h1.82V0Zm4.36,0V-10.46h2.2V0Zm0-12.18V-14.6h2.2v2.42ZM64.4.2a5.434,5.434,0,0,1-2.23-.44,5.206,5.206,0,0,1-1.69-1.18A5.2,5.2,0,0,1,59.4-3.15a5.727,5.727,0,0,1-.38-2.07,5.727,5.727,0,0,1,.38-2.07,5.119,5.119,0,0,1,1.09-1.73,5.322,5.322,0,0,1,1.7-1.18,5.383,5.383,0,0,1,2.21-.44,5.383,5.383,0,0,1,2.21.44,5.322,5.322,0,0,1,1.7,1.18A5.119,5.119,0,0,1,69.4-7.29a5.727,5.727,0,0,1,.38,2.07,5.727,5.727,0,0,1-.38,2.07,5.119,5.119,0,0,1-1.09,1.73,5.322,5.322,0,0,1-1.7,1.18A5.383,5.383,0,0,1,64.4.2ZM61.28-5.2a3.957,3.957,0,0,0,.24,1.4,3.48,3.48,0,0,0,.66,1.11,3.087,3.087,0,0,0,.99.74,2.837,2.837,0,0,0,1.23.27,2.837,2.837,0,0,0,1.23-.27,3.022,3.022,0,0,0,.99-.75,3.6,3.6,0,0,0,.66-1.12,3.957,3.957,0,0,0,.24-1.4,3.981,3.981,0,0,0-.24-1.39,3.579,3.579,0,0,0-.66-1.13,3.022,3.022,0,0,0-.99-.75,2.837,2.837,0,0,0-1.23-.27,2.709,2.709,0,0,0-1.21.28,3.147,3.147,0,0,0-.99.76,3.732,3.732,0,0,0-.67,1.13A3.839,3.839,0,0,0,61.28-5.2Z" transform="translate(662 754)"/>
</svg>
