<svg xmlns="http://www.w3.org/2000/svg" viewBox="103.15 966.1 168.63 22.2">
  <defs>
    <style>
      .cls-1 {
        fill: #fff;
      }
    </style>
  </defs>
  <g id="logo-AironWallet" transform="translate(14.24 943)">
    <path id="Path_5" data-name="Path 5" class="cls-1" d="M8.28-21.3h3.66L20.04,0H15.78L13.8-5.31H6.36L4.41,0H.15ZM13.05-8.22l-2.94-8.37L7.05-8.22ZM21.99,0V-15.72h4.02V0Zm0-17.91V-21.9h4.02v3.99ZM39-12.24a7.929,7.929,0,0,0-3.27.7A4.127,4.127,0,0,0,33.66-9.51V0H29.64V-15.72h3.69v3.36a7.167,7.167,0,0,1,.99-1.455,7.634,7.634,0,0,1,1.23-1.125,5.7,5.7,0,0,1,1.335-.735,3.684,3.684,0,0,1,1.3-.255h.495A1.6,1.6,0,0,1,39-15.9ZM47.73.3a8.629,8.629,0,0,1-3.45-.66,7.749,7.749,0,0,1-2.6-1.785,7.879,7.879,0,0,1-1.635-2.6,8.472,8.472,0,0,1-.57-3.09,8.554,8.554,0,0,1,.57-3.12,7.879,7.879,0,0,1,1.635-2.6,7.749,7.749,0,0,1,2.6-1.785,8.629,8.629,0,0,1,3.45-.66,8.521,8.521,0,0,1,3.435.66,7.786,7.786,0,0,1,2.58,1.785,7.879,7.879,0,0,1,1.635,2.6,8.554,8.554,0,0,1,.57,3.12,8.472,8.472,0,0,1-.57,3.09,8.006,8.006,0,0,1-1.62,2.6A7.586,7.586,0,0,1,51.18-.36,8.629,8.629,0,0,1,47.73.3ZM43.62-7.83a5.477,5.477,0,0,0,.315,1.905,4.655,4.655,0,0,0,.87,1.485,3.889,3.889,0,0,0,1.305.975,3.829,3.829,0,0,0,1.62.345,3.829,3.829,0,0,0,1.62-.345,3.889,3.889,0,0,0,1.305-.975,4.622,4.622,0,0,0,.87-1.5,5.6,5.6,0,0,0,.315-1.92,5.512,5.512,0,0,0-.315-1.89,4.622,4.622,0,0,0-.87-1.5,3.889,3.889,0,0,0-1.305-.975,3.829,3.829,0,0,0-1.62-.345,3.7,3.7,0,0,0-1.62.36,4.071,4.071,0,0,0-1.305.99,4.622,4.622,0,0,0-.87,1.5A5.512,5.512,0,0,0,43.62-7.83ZM73.26,0H69.24V-8.82a4.6,4.6,0,0,0-.66-2.76,2.168,2.168,0,0,0-1.83-.87,3.443,3.443,0,0,0-1.23.24,4.527,4.527,0,0,0-1.185.675,5.492,5.492,0,0,0-1,1.035,4.092,4.092,0,0,0-.66,1.32V0H58.65V-15.72h3.63v2.91a5.954,5.954,0,0,1,2.52-2.34,8.082,8.082,0,0,1,3.72-.84,4.738,4.738,0,0,1,2.4.54,3.9,3.9,0,0,1,1.44,1.41,5.9,5.9,0,0,1,.705,1.98,12.98,12.98,0,0,1,.195,2.25Zm9.66-21.24h3.81l2.4,7.05,2.4-7.05h3.84l-3.63,9.69,2.7,6.81,6.03-16.56h4.5L96.3,0H92.82L89.13-8.94,85.44,0H81.96L73.35-21.3h4.44L83.85-4.74l2.64-6.81ZM109.56.3a5.963,5.963,0,0,1-2.13-.375,5.12,5.12,0,0,1-1.71-1.05A4.887,4.887,0,0,1,104.6-2.7a4.77,4.77,0,0,1-.4-1.98,4.362,4.362,0,0,1,.5-2.055,4.712,4.712,0,0,1,1.38-1.605,6.841,6.841,0,0,1,2.115-1.035,9.226,9.226,0,0,1,2.7-.375,11.634,11.634,0,0,1,2.055.18,8.37,8.37,0,0,1,1.785.51v-.9a3.151,3.151,0,0,0-.885-2.4,3.68,3.68,0,0,0-2.625-.84,6.953,6.953,0,0,0-2.46.45,11.424,11.424,0,0,0-2.46,1.32l-1.23-2.55a11.606,11.606,0,0,1,6.54-2.01,7.663,7.663,0,0,1,5.265,1.665A6.1,6.1,0,0,1,118.74-9.51v4.89a1.413,1.413,0,0,0,.225.9.986.986,0,0,0,.735.3V0a8.95,8.95,0,0,1-1.77.21,2.68,2.68,0,0,1-1.755-.51,2.192,2.192,0,0,1-.765-1.35l-.09-.87a6.957,6.957,0,0,1-2.55,2.1A7.323,7.323,0,0,1,109.56.3Zm1.14-2.94A5.237,5.237,0,0,0,112.635-3a3.512,3.512,0,0,0,1.425-.96,1.444,1.444,0,0,0,.66-1.14V-6.9a9.842,9.842,0,0,0-1.56-.435,8.4,8.4,0,0,0-1.62-.165,4.3,4.3,0,0,0-2.55.7A2.117,2.117,0,0,0,108-5.01a2.148,2.148,0,0,0,.78,1.695A2.831,2.831,0,0,0,110.7-2.64ZM122.46-21.9h4.02V-5.04a1.984,1.984,0,0,0,.42,1.35,1.509,1.509,0,0,0,1.2.48,3.011,3.011,0,0,0,.795-.12,5.377,5.377,0,0,0,.825-.3l.54,3.06a7.775,7.775,0,0,1-1.89.6,10.311,10.311,0,0,1-1.95.21A4.026,4.026,0,0,1,123.5-.765,3.81,3.81,0,0,1,122.46-3.63Zm9.51,0h4.02V-5.04a1.984,1.984,0,0,0,.42,1.35,1.509,1.509,0,0,0,1.2.48,3.011,3.011,0,0,0,.795-.12,5.377,5.377,0,0,0,.825-.3l.54,3.06a7.775,7.775,0,0,1-1.89.6,10.311,10.311,0,0,1-1.95.21,4.026,4.026,0,0,1-2.925-1.005A3.81,3.81,0,0,1,131.97-3.63ZM148.8.3a8.723,8.723,0,0,1-3.42-.645A7.842,7.842,0,0,1,142.77-2.1,7.79,7.79,0,0,1,141.1-4.68a8.28,8.28,0,0,1-.585-3.09,8.756,8.756,0,0,1,.57-3.165,7.724,7.724,0,0,1,1.65-2.61,7.877,7.877,0,0,1,2.625-1.785,8.738,8.738,0,0,1,3.465-.66,8.521,8.521,0,0,1,3.435.66,7.9,7.9,0,0,1,2.58,1.77,7.522,7.522,0,0,1,1.62,2.58,8.592,8.592,0,0,1,.555,3.06q0,.39-.015.75a3.051,3.051,0,0,1-.075.6H144.78a4.665,4.665,0,0,0,.45,1.65,4.078,4.078,0,0,0,.93,1.23,4.051,4.051,0,0,0,1.29.78,4.237,4.237,0,0,0,1.5.27,4.634,4.634,0,0,0,2.265-.585A3.1,3.1,0,0,0,152.67-4.77l3.45.96a7.014,7.014,0,0,1-2.775,2.955A8.6,8.6,0,0,1,148.8.3Zm4.08-9.48a4.179,4.179,0,0,0-1.3-2.835,3.988,3.988,0,0,0-2.805-1.065,4,4,0,0,0-1.515.285,3.953,3.953,0,0,0-1.245.8,4.12,4.12,0,0,0-.885,1.23,4.335,4.335,0,0,0-.405,1.59Zm15.9,8.37a17.939,17.939,0,0,1-1.98.72,8.318,8.318,0,0,1-2.46.36,5.71,5.71,0,0,1-1.575-.21,3.464,3.464,0,0,1-1.29-.675,3.3,3.3,0,0,1-.885-1.2,4.343,4.343,0,0,1-.33-1.785v-9.03h-2.07v-3.09h2.07v-5.1h4.02v5.1h3.3v3.09h-3.3v7.68a1.429,1.429,0,0,0,.435,1.185,1.66,1.66,0,0,0,1.065.345,3.7,3.7,0,0,0,1.23-.21q.6-.21.96-.36Z" transform="translate(88.76 45)"/>
  </g>
</svg>
